<svg xmlns="http://www.w3.org/2000/svg" viewBox="0 0 100 100">
  <defs>
    <linearGradient id="leafGradient" x1="0%" y1="0%" x2="100%" y2="100%">
      <stop offset="0%" style="stop-color:#86C232;stop-opacity:1" />
      <stop offset="100%" style="stop-color:#61892F;stop-opacity:1" />
    </linearGradient>
  </defs>
  
  <!-- Background circle -->
  <circle cx="50" cy="50" r="48" fill="#ffffff"/>
  
  <!-- Leaf shape -->
  <path d="M 50 15 Q 65 25, 70 40 Q 72 50, 70 60 Q 65 75, 50 85 Q 35 75, 30 60 Q 28 50, 30 40 Q 35 25, 50 15 Z" 
        fill="url(#leafGradient)"/>
  
  <!-- Leaf vein -->
  <path d="M 50 20 L 50 80" 
        stroke="#ffffff" 
        stroke-width="2" 
        stroke-linecap="round"/>
  
  <!-- Side veins -->
  <path d="M 50 35 Q 55 38, 60 45" 
        stroke="#ffffff" 
        stroke-width="1.5" 
        fill="none"
        stroke-linecap="round"/>
  <path d="M 50 35 Q 45 38, 40 45" 
        stroke="#ffffff" 
        stroke-width="1.5" 
        fill="none"
        stroke-linecap="round"/>
  <path d="M 50 50 Q 57 52, 63 58" 
        stroke="#ffffff" 
        stroke-width="1.5" 
        fill="none"
        stroke-linecap="round"/>
  <path d="M 50 50 Q 43 52, 37 58" 
        stroke="#ffffff" 
        stroke-width="1.5" 
        fill="none"
        stroke-linecap="round"/>
</svg>
